<?xml version="1.0" encoding="iso-8859-1"?>
<!-- Generator: Adobe Illustrator 19.0.0, SVG Export Plug-In . SVG Version: 6.00 Build 0)  -->
<svg version="1.1" id="Capa_1" xmlns="http://www.w3.org/2000/svg" xmlns:xlink="http://www.w3.org/1999/xlink" x="0px" y="0px"
	 viewBox="0 0 496 496" style="enable-background:new 0 0 496 496;" xml:space="preserve">
<g>
	<g>
		<g>
			<path d="M150.688,343.496c-36.952,5.688-68.048,32.424-79.192,68.12L45.12,496h405.76l-26.376-84.392
				c-11.152-35.696-42.24-62.432-79.192-68.12L304,337.136v-1.264c11.4-4.76,21.952-11.48,31.088-20.032
				C340.952,323.192,349.88,328,360,328c6.84,0,13.448-2.2,18.88-6.176C385.024,325.68,392.232,328,400,328
				c22.056,0,40-17.944,40-40c0-13.232-10.768-24-24-24s-24,10.768-24,24v8h16v-8c0-4.416,3.584-8,8-8c4.416,0,8,3.584,8,8
				c0,13.232-10.768,24-24,24s-24-10.768-24-24v-33.472c9.288-3.312,16-12.112,16-22.528v-63.224L425.76,0H280h-64H70.24
				L104,168.776V232c0,10.416,6.712,19.216,16,22.528V288c0,13.232-10.768,24-24,24s-24-10.768-24-24c0-4.416,3.584-8,8-8
				s8,3.584,8,8v8h16v-8c0-13.232-10.768-24-24-24s-24,10.768-24,24c0,22.056,17.944,40,40,40c7.768,0,14.976-2.32,21.12-6.176
				C122.552,325.8,129.16,328,136,328c10.12,0,19.048-4.816,24.92-12.168c9.136,8.552,19.68,15.28,31.08,20.032v1.272
				L150.688,343.496z M154.344,367.032c3.128-3.112,8.2-3.12,11.312,0.008c1.512,1.504,2.344,3.504,2.344,5.648
				c0,2.136-0.832,4.144-2.344,5.656L160,384l5.656,5.656c1.512,1.512,2.344,3.52,2.344,5.656c0,2.144-0.832,4.144-2.344,5.656
				c-3.128,3.128-8.184,3.128-11.312,0L137.376,384L154.344,367.032z M133.792,364.96L114.752,384l24,24H90.056
				C98.6,388.552,114.408,373.16,133.792,364.96z M66.88,480l14.296-45.76L107.224,480H66.88z M93.752,424H148.2l-27.224,47.832
				L93.752,424z M134.736,480l27.216-47.832L189.176,480H134.736z M175.712,424h54.44l-27.224,47.832L175.712,424z M216.688,480
				l27.216-47.832L271.12,480H216.688z M257.664,424h54.432l-27.224,47.832L257.664,424z M359.592,392H376v-16h-16.408
				c0.152-1.104,0.408-2.184,0.408-3.312c0-3.248-0.648-6.392-1.872-9.296c21.232,7.688,38.68,23.816,47.816,44.608h-49.632
				c2.368-3.776,3.688-8.12,3.688-12.688C360,394.184,359.744,393.104,359.592,392z M402.24,424l-10.352,18.192l13.904,7.904
				l9.024-15.864L429.12,480h-40.328l7.576-13.304l-13.904-7.92l-7.432,13.056L347.8,424H402.24z M361.264,480h-62.64l31.328-55.032
				L361.264,480z M341.656,367.04c1.512,1.504,2.344,3.504,2.344,5.648c0,2.136-0.832,4.144-2.344,5.656L336,384l5.656,5.656
				c1.512,1.512,2.344,3.52,2.344,5.656c0,2.144-0.832,4.144-2.344,5.656c-3.128,3.128-8.184,3.128-11.312,0L313.376,384
				l16.968-16.968C333.472,363.92,338.544,363.912,341.656,367.04z M360,312c-8.824,0-16-7.176-16-16v-41.472
				c2.992-1.064,5.688-2.68,8-4.768c2.312,2.08,5.008,3.704,8,4.768V288c0,8.296,2.544,16,6.88,22.4
				C364.752,311.416,362.408,312,360,312z M376,232c0,4.416-3.584,8-8,8c-4.416,0-8-3.584-8-8v-56h16V232z M371.984,16
				l-25.92,75.032l-30.248-10.448L338.128,16H371.984z M157.872,16l22.32,64.584l-30.248,10.448L124.016,16H157.872z M89.752,16
				h17.336l32.96,95.376l60.488-20.888L174.792,16H216v16h16V16h32v80h-32V48h-16v64h64V16h41.208l-25.736,74.488l60.488,20.888
				L388.912,16h17.328l-22.4,112H112.152L89.752,16z M118.552,160l-3.2-16H380.64l-3.2,16H118.552z M120,232v-56h16v56
				c0,4.416-3.584,8-8,8S120,236.416,120,232z M152,296c0,8.824-7.176,16-16,16c-2.408,0-4.752-0.584-6.88-1.6
				c4.336-6.4,6.88-14.104,6.88-22.4v-33.472c2.992-1.064,5.688-2.68,8-4.768c2.312,2.08,5.008,3.704,8,4.768V296z M167.608,299.848
				c0.16-1.272,0.392-2.528,0.392-3.848v-41.472c9.288-3.312,16-12.112,16-22.528h-16c0,4.416-3.584,8-8,8s-8-3.584-8-8v-56h192v56
				c0,4.416-3.584,8-8,8c-4.416,0-8-3.584-8-8h-16c0,10.416,6.712,19.216,16,22.528V296c0,1.32,0.232,2.568,0.392,3.84
				C311.768,317.72,288.464,328,264,328h-32C207.536,328,184.24,317.72,167.608,299.848z M288,341.096v1.736
				C286.624,347,278.216,368,248,368c-30.208,0-38.6-20.904-40-25.168v-1.736c7.808,1.856,15.84,2.904,24,2.904h32
				C272.16,344,280.192,342.952,288,341.096z M194.76,352.896C201.056,366.336,217.184,384,248,384s46.944-17.664,53.232-31.104
				l17.88,2.752c-0.024,0.024-0.056,0.048-0.08,0.072L290.752,384l24,24h-134.44c2.368-3.776,3.688-8.12,3.688-12.688
				c0-1.128-0.256-2.208-0.408-3.312H200v-16h-16.408c0.152-1.104,0.408-2.184,0.408-3.312c0-6.416-2.496-12.448-7.032-16.968
				c-0.024-0.024-0.056-0.04-0.088-0.072L194.76,352.896z"/>
			<path d="M288,240c13.232,0,24-10.768,24-24s-10.768-24-24-24s-24,10.768-24,24S274.768,240,288,240z M288,208
				c4.416,0,8,3.584,8,8s-3.584,8-8,8c-4.416,0-8-3.584-8-8S283.584,208,288,208z"/>
			<path d="M208,240c13.232,0,24-10.768,24-24s-10.768-24-24-24s-24,10.768-24,24S194.768,240,208,240z M208,208
				c4.416,0,8,3.584,8,8s-3.584,8-8,8s-8-3.584-8-8S203.584,208,208,208z"/>
			<path d="M310.656,276.44l-13.312-8.872C297.208,267.768,283.312,288,248,288c-34.832,0-48.808-19.656-49.384-20.496
				l-13.272,8.928C186.096,277.56,204.216,304,248,304S309.904,277.56,310.656,276.44z"/>
		</g>
	</g>
</g>
<g>
</g>
<g>
</g>
<g>
</g>
<g>
</g>
<g>
</g>
<g>
</g>
<g>
</g>
<g>
</g>
<g>
</g>
<g>
</g>
<g>
</g>
<g>
</g>
<g>
</g>
<g>
</g>
<g>
</g>
</svg>
