<?xml version="1.0" encoding="iso-8859-1"?>
<!-- Generator: Adobe Illustrator 19.0.0, SVG Export Plug-In . SVG Version: 6.00 Build 0)  -->
<svg version="1.1" id="Layer_1" xmlns="http://www.w3.org/2000/svg" xmlns:xlink="http://www.w3.org/1999/xlink" x="0px" y="0px"
	 viewBox="0 0 512.011 512.011" style="enable-background:new 0 0 512.011 512.011;" xml:space="preserve">
<g>
	<g>
		<g>
			<path d="M409.606,238.882c0-52.241-16.956-95.232-17.673-97.041c-1.758-4.369-6.699-6.485-11.102-4.753
				c-4.369,1.758-6.502,6.716-4.753,11.102c0.171,0.401,16.461,41.702,16.461,90.692c0,16.358-2.022,28.45-4.164,41.259
				c-2.159,12.928-4.395,26.3-4.395,44.075c0,34.79,8.456,68.907,8.815,70.34c0.973,3.874,4.446,6.46,8.269,6.46
				c0.691,0,1.391-0.085,2.082-0.256c4.574-1.152,7.347-5.786,6.204-10.351c-0.085-0.333-8.303-33.493-8.303-66.193
				c0-16.358,2.022-28.45,4.164-41.259C407.37,270.029,409.606,256.657,409.606,238.882z"/>
			<path d="M307.206,213.282c4.71,0,8.533-3.823,8.533-8.533v-0.512l7.996,0.495c0.188,0.017,0.367,0.017,0.546,0.017
				c4.471,0,8.226-3.482,8.508-8.004c0.299-4.702-3.277-8.747-7.987-9.045l-34.133-2.133c-4.736-0.247-8.747,3.285-9.045,7.987
				c-0.299,4.702,3.277,8.747,7.979,9.045l9.071,0.563v1.587C298.672,209.459,302.495,213.282,307.206,213.282z"/>
			<path d="M204.806,213.282c4.71,0,8.533-3.823,8.533-8.533v-1.587l9.062-0.563c4.71-0.299,8.286-4.343,7.987-9.045
				c-0.299-4.702-4.284-8.26-9.054-7.987l-34.125,2.133c-4.71,0.299-8.286,4.343-7.987,9.045c0.282,4.523,4.036,8.004,8.508,8.004
				c0.179,0,0.358,0,0.538-0.017l8.004-0.495v0.512C196.272,209.459,200.095,213.282,204.806,213.282z"/>
			<path d="M110.939,119.415h45.926l-2.364,4.719c-2.108,4.215-0.393,9.335,3.823,11.452c1.22,0.606,2.526,0.896,3.806,0.896
				c3.132,0,6.144-1.724,7.646-4.719l6.17-12.348h23.586l6.17,12.348c1.502,2.995,4.514,4.719,7.646,4.719
				c1.28,0,2.586-0.29,3.806-0.896c4.215-2.116,5.931-7.236,3.814-11.452l-2.355-4.719h74.786l-2.364,4.719
				c-2.108,4.215-0.393,9.335,3.823,11.452c1.22,0.606,2.526,0.896,3.806,0.896c3.132,0,6.144-1.724,7.637-4.719l6.178-12.348
				h15.053l-2.364,4.719c-2.108,4.215-0.393,9.335,3.823,11.452c1.22,0.606,2.526,0.896,3.806,0.896
				c3.132,0,6.144-1.724,7.646-4.719l6.17-12.348h54.46c4.71,0,8.533-3.823,8.533-8.533s-3.823-8.533-8.533-8.533h-9.779
				c-7.432-39.714-33.911-76.535-67.678-93.218C300.439-2.313,276.639-2.91,256.031,7.313c-20.318-10.206-43.955-9.66-67.106,1.707
				c-34.057,16.7-60.749,53.572-68.207,93.329h-9.779c-4.71,0-8.533,3.823-8.533,8.533S106.229,119.415,110.939,119.415z
				 M196.435,24.345c19.473-9.54,39.091-9.549,55.219,0.009c2.671,1.587,5.982,1.596,8.653,0.026
				c21.077-12.314,41.958-6.776,55.757,0.051c28.245,13.961,50.449,44.51,57.651,77.918h-18.569l2.364-4.719
				c2.108-4.215,0.393-9.335-3.823-11.452c-4.224-2.108-9.344-0.393-11.452,3.823l-6.17,12.348h-66.253l-6.178-12.348
				c-2.099-4.216-7.219-5.931-11.443-3.823c-4.215,2.116-5.931,7.236-3.823,11.452l2.364,4.719h-40.653l-6.17-12.348
				c-2.108-4.216-7.228-5.931-11.452-3.823c-4.215,2.116-5.931,7.236-3.823,11.452l2.364,4.719h-52.702
				C145.542,68.915,167.925,38.323,196.435,24.345z"/>
			<path d="M380.208,436.582c-3.925-2.628-9.216-1.553-11.836,2.364c-18.295,27.435-18.5,62.967-18.5,64.469
				c0,4.71,3.823,8.533,8.533,8.533s8.533-3.823,8.533-8.533c0-0.316,0.179-31.812,15.633-54.997
				C385.183,444.492,384.125,439.193,380.208,436.582z"/>
			<path d="M511.571,500.719l-9.071-27.221c-8.388-25.353-21.035-63.599-142.387-63.599c-2.091,0-4.25,0.137-6.05,1.195
				c-1.178,0.691-19.081,11.554-36.608,35.072c-33.894,17.86-66.091,49.826-67.482,51.217c-3.336,3.337-3.336,8.73,0,12.066
				c1.664,1.664,3.849,2.5,6.033,2.5c2.185,0,4.369-0.836,6.033-2.5c0.23-0.23,16.179-16.068,36.719-31.189
				c-3.106,7.014-5.939,14.575-8.286,22.81c-1.297,4.531,1.323,9.259,5.854,10.547c4.54,1.314,9.259-1.323,10.547-5.854
				c5.564-19.456,14.054-35.021,22.75-47.112c1.237-1.033,2.261-2.27,2.748-3.746c12.143-15.838,24.132-24.883,28.578-27.938
				c108.211,0.145,118.118,30.029,125.346,51.891l9.08,27.255c1.195,3.575,4.523,5.845,8.098,5.845c0.887,0,1.801-0.145,2.697-0.444
				C510.64,510.02,513.064,505.19,511.571,500.719z"/>
			<path d="M365.412,326.971c16.213-47.539,18.492-94.268,18.586-96.239c0.213-4.702-3.43-8.695-8.141-8.909
				c-4.634-0.094-8.695,3.43-8.909,8.141c-0.026,0.657-1.314,25.079-7.945,55.689c-10.769,9.259-31.633,16.205-45.073,19.695
				c-3.959-12.919-16.538-34.091-56.516-40.747c-0.939-0.162-1.877-0.162-2.816,0c-39.979,6.656-52.557,27.827-56.516,40.747
				c-13.423-3.49-34.253-10.419-45.03-19.661c-6.647-30.626-7.962-55.074-7.987-55.731c-0.213-4.71-4.284-8.38-8.917-8.132
				c-4.702,0.213-8.346,4.207-8.132,8.909c0.094,1.971,2.372,48.7,18.586,96.239c22.221,65.186,60.049,99.644,109.406,99.644
				S343.191,392.158,365.412,326.971z M159.093,309.478c19.738,9.591,42.709,14.31,44.041,14.566
				c2.458,0.512,5.026-0.179,6.997-1.749c1.963-1.57,3.14-3.985,3.208-6.502c0.026-1.101,1.186-26.641,42.667-34.116
				c41.481,7.475,42.641,33.016,42.667,34.005c0,2.56,1.143,4.984,3.123,6.596c1.536,1.263,3.456,1.937,5.41,1.937
				c0.555,0,1.118-0.051,1.673-0.171c1.34-0.265,24.346-4.984,44.092-14.583c-14.08,48.051-41.993,100.087-96.964,100.087
				C201.102,409.549,173.19,357.529,159.093,309.478z"/>
			<path d="M281.606,315.682c0-4.71-3.823-8.533-8.533-8.533h-34.133c-4.71,0-8.533,3.823-8.533,8.533
				c0,4.71,3.823,8.533,8.533,8.533h34.133C277.783,324.215,281.606,320.392,281.606,315.682z"/>
			<path d="M110.965,324.215c0,32.623-8.218,65.86-8.303,66.193c-1.143,4.574,1.638,9.207,6.204,10.351
				c0.7,0.171,1.391,0.256,2.082,0.256c3.823,0,7.296-2.586,8.269-6.46c0.358-1.434,8.815-35.55,8.815-70.34
				c0-17.775-2.236-31.147-4.395-44.075c-2.142-12.809-4.164-24.9-4.164-41.259c0-48.828,16.299-90.291,16.461-90.701
				c1.741-4.378-0.393-9.344-4.762-11.085c-4.378-1.758-9.344,0.375-11.093,4.745c-0.717,1.809-17.673,44.8-17.673,97.041
				c0,17.775,2.236,31.147,4.395,44.075C108.942,295.765,110.965,307.857,110.965,324.215z"/>
			<path d="M153.606,409.549c-122.931,0-135.142,36.898-144.051,63.838l-9.114,27.332c-1.493,4.471,0.93,9.301,5.402,10.795
				c0.896,0.299,1.809,0.444,2.697,0.444c3.576,0,6.903-2.27,8.098-5.845l9.114-27.366c7.689-23.219,17.254-52.13,127.855-52.13
				c4.71,0,8.533-3.823,8.533-8.533S158.316,409.549,153.606,409.549z"/>
		</g>
	</g>
</g>
<g>
</g>
<g>
</g>
<g>
</g>
<g>
</g>
<g>
</g>
<g>
</g>
<g>
</g>
<g>
</g>
<g>
</g>
<g>
</g>
<g>
</g>
<g>
</g>
<g>
</g>
<g>
</g>
<g>
</g>
</svg>
